<svg width="363" height="363" viewBox="0 0 363 363" fill="none" xmlns="http://www.w3.org/2000/svg">
<g clip-path="url(#clip0_8_674)">
<path d="M87.0152 156.973L93.9838 157.019V109H80V191.141L93.9838 207.64V171.081L86.9686 171.034L87.0152 156.973Z" fill="#FF6600"/>
<path d="M130.551 171.221L123.606 171.198V242.559L137.59 259.058V109H123.606V157.137L130.621 157.16L130.551 171.221Z" fill="#FF6600"/>
<path d="M130.551 171.221L130.621 157.16L123.606 157.137L93.9837 157.02L87.0152 156.973L86.9686 171.034L93.9837 171.081L123.606 171.198L130.551 171.221Z" fill="#FF6600"/>
<path d="M203.29 284.79L212.426 274.01L187.978 247.738H168.82L203.29 284.79Z" fill="#FF6600"/>
<path d="M270.04 157.066H240.417V171.128H270.04V157.066Z" fill="#FF6600"/>
<path d="M210.795 109.117H153.205V171.128H210.795V109.117ZM196.811 157.066H167.189V123.178H196.811V157.066Z" fill="#FF6600"/>
<path d="M226.433 257.487L240.417 240.989V171.128V157.066V123.179H270.016V157.066V171.128V206.07L284 189.571V109.117H226.433V257.487Z" fill="#FF6600"/>
<path d="M153.205 240.708H167.189V247.738H210.795V185.728H153.205V240.708ZM167.189 199.766H196.811V233.654H167.189V199.766Z" fill="#FF6600"/>
<path d="M167.189 240.708H153.205V247.738V277.501L167.189 294V247.738V240.708Z" fill="#FF6600"/>
</g>
<defs>
<clipPath id="clip0_8_674">
<rect width="204" height="185" fill="white" transform="translate(80 109)"/>
</clipPath>
</defs>
</svg>
