<svg width="500" height="500" viewBox="0 0 500 500" fill="none" xmlns="http://www.w3.org/2000/svg">
<g clip-path="url(#clip0_8_662)">
<path d="M363.537 265.54V124.03H330.296V223.39C344.124 234.892 355.493 249.252 363.537 265.54Z" fill="#FF6600"/>
<path d="M136.463 228.243V375.97H169.704V270.394C155.876 258.892 144.507 244.532 136.463 228.243Z" fill="#FF6600"/>
<path d="M252.144 286.948H307.059C296.123 268.798 277.142 256 255.036 253.706H252.144C206.702 253.706 169.704 216.708 169.704 171.267V124.03H136.463V171.267C136.463 235.058 188.353 286.948 252.144 286.948Z" fill="#FF6600"/>
<path d="M247.856 206.802H192.94C203.877 224.952 222.858 237.75 244.964 240.044H247.856C293.297 240.044 330.295 277.042 330.295 322.484V375.97H363.537V322.484C363.537 258.693 311.647 206.802 247.856 206.802Z" fill="#FF6600"/>
</g>
<defs>
<clipPath id="clip0_8_662">
<rect width="227.074" height="251.939" fill="white" transform="translate(136.463 124.03)"/>
</clipPath>
</defs>
</svg>
