<svg width="1062" height="256" viewBox="0 0 1062 256" fill="none" xmlns="http://www.w3.org/2000/svg">
<path d="M204.93 142.8V15.1199H174.93V104.79C187.41 115.17 197.67 128.13 204.93 142.83V142.8Z" fill="#FF6600"/>
<path d="M0 109.14V242.46H30V147.18C17.52 136.8 7.26 123.84 0 109.14Z" fill="#FF6600"/>
<path d="M104.4 162.15H153.96C144.09 145.77 126.96 134.22 107.01 132.15H104.4C63.39 132.15 30 98.7599 30 57.7499V15.1199H0V57.7499C0 115.32 46.83 162.15 104.4 162.15Z" fill="#FF6600"/>
<path d="M100.53 89.8198H50.97C60.84 106.2 77.97 117.75 97.92 119.82H100.53C141.54 119.82 174.93 153.21 174.93 194.22V242.49H204.93V194.22C204.93 136.65 158.1 89.8198 100.53 89.8198Z" fill="#FF6600"/>
<path d="M382.56 61.74V200.85H359.1V61.74H382.56ZM368.46 115.41H467.61V137.07H368.46V115.41ZM475.95 61.74V200.85H452.49V61.74H475.95Z" fill="#2D2D2D"/>
<path d="M556.05 102.48C559.62 93.7199 564.69 86.1599 571.26 79.7399C577.83 73.3199 585.51 68.3099 594.3 64.7399C603.12 61.1699 612.6 59.3699 622.8 59.3699C633 59.3699 642.87 61.1699 651.63 64.7399C660.36 68.3099 668.01 73.3199 674.58 79.7399C681.15 86.1599 686.22 93.7499 689.79 102.48C693.36 111.21 695.16 120.84 695.16 131.28C695.16 141.72 693.36 151.23 689.79 160.08C686.22 168.96 681.18 176.64 674.7 183.12C668.22 189.6 660.57 194.67 651.75 198.33C642.93 201.96 633.3 203.79 622.83 203.79C612.36 203.79 602.88 201.96 594.03 198.33C585.15 194.7 577.5 189.63 571.08 183.12C564.66 176.64 559.65 168.96 556.08 160.08C552.51 151.2 550.71 141.6 550.71 131.28C550.71 120.96 552.51 111.21 556.08 102.48H556.05ZM581.58 156.84C585.63 164.34 591.21 170.19 598.38 174.42C605.55 178.65 613.68 180.78 622.83 180.78C631.98 180.78 640.29 178.65 647.37 174.42C654.45 170.19 660.03 164.31 664.05 156.84C668.1 149.37 670.11 140.85 670.11 131.31C670.11 121.77 668.13 113.25 664.14 105.78C660.18 98.3099 654.63 92.4299 647.55 88.1999C640.47 83.9699 632.22 81.8399 622.8 81.8399C613.38 81.8399 605.52 83.9699 598.35 88.1999C591.21 92.4299 585.6 98.3099 581.55 105.78C577.5 113.28 575.49 121.77 575.49 131.31C575.49 140.85 577.5 149.37 581.55 156.84H581.58Z" fill="#2D2D2D"/>
<path d="M793.11 61.74V200.85H769.65V61.74H793.11ZM783.57 61.74H812.58C822.66 61.74 831.42 63.54 838.92 67.11C846.39 70.68 852.21 75.69 856.29 82.11C860.4 88.53 862.44 96.12 862.44 104.85C862.44 113.58 860.4 121.2 856.29 127.71C852.18 134.19 846.39 139.23 838.92 142.8C831.42 146.37 822.66 148.17 812.58 148.17H783.57V128.91H811.59C816.9 128.91 821.55 127.98 825.6 126.12C829.65 124.26 832.77 121.59 835.02 118.08C837.27 114.57 838.41 110.37 838.41 105.45C838.41 100.53 837.27 96.18 835.02 92.73C832.77 89.28 829.62 86.64 825.6 84.78C821.55 82.92 816.9 81.99 811.59 81.99H783.57V61.71V61.74ZM823.71 134.49L870.81 200.85H842.58L798.27 134.49H823.71Z" fill="#2D2D2D"/>
<path d="M970.74 152.16L970.35 157.32L951.06 200.85H924.63L992.58 54L1060.53 200.85H1034.1L1015.23 158.52L1014.63 152.76L992.58 101.1L970.71 152.16H970.74ZM960.6 145.2H1025.19L1029.75 165.06H956.22L960.6 145.2Z" fill="#2D2D2D"/>
</svg>
