<svg width="1350" height="450" viewBox="0 0 1350 450" fill="none" xmlns="http://www.w3.org/2000/svg">
<path d="M348.93 238.8V111.12H318.93V200.79C331.41 211.17 341.67 224.13 348.93 238.83V238.8Z" fill="#FF6600"/>
<path d="M144 205.14V338.46H174V243.18C161.52 232.8 151.26 219.84 144 205.14Z" fill="#FF6600"/>
<path d="M248.4 258.15H297.96C288.09 241.77 270.96 230.22 251.01 228.15H248.4C207.39 228.15 174 194.76 174 153.75V111.12H144V153.75C144 211.32 190.83 258.15 248.4 258.15Z" fill="#FF6600"/>
<path d="M244.53 185.82H194.97C204.84 202.2 221.97 213.75 241.92 215.82H244.53C285.54 215.82 318.93 249.21 318.93 290.22V338.49H348.93V290.22C348.93 232.65 302.1 185.82 244.53 185.82Z" fill="#FF6600"/>
<path d="M526.56 157.74V296.85H503.1V157.74H526.56ZM512.46 211.41H611.61V233.07H512.46V211.41ZM619.95 157.74V296.85H596.49V157.74H619.95Z" fill="#2D2D2D"/>
<path d="M700.05 198.48C703.62 189.72 708.69 182.16 715.26 175.74C721.83 169.32 729.51 164.31 738.3 160.74C747.12 157.17 756.6 155.37 766.8 155.37C777 155.37 786.87 157.17 795.63 160.74C804.36 164.31 812.01 169.32 818.58 175.74C825.15 182.16 830.22 189.75 833.79 198.48C837.36 207.21 839.16 216.84 839.16 227.28C839.16 237.72 837.36 247.23 833.79 256.08C830.22 264.96 825.18 272.64 818.7 279.12C812.22 285.6 804.57 290.67 795.75 294.33C786.93 297.96 777.3 299.79 766.83 299.79C756.36 299.79 746.88 297.96 738.03 294.33C729.15 290.7 721.5 285.63 715.08 279.12C708.66 272.64 703.65 264.96 700.08 256.08C696.51 247.2 694.71 237.6 694.71 227.28C694.71 216.96 696.51 207.21 700.08 198.48H700.05ZM725.58 252.84C729.63 260.34 735.21 266.19 742.38 270.42C749.55 274.65 757.68 276.78 766.83 276.78C775.98 276.78 784.29 274.65 791.37 270.42C798.45 266.19 804.03 260.31 808.05 252.84C812.1 245.37 814.11 236.85 814.11 227.31C814.11 217.77 812.13 209.25 808.14 201.78C804.18 194.31 798.63 188.43 791.55 184.2C784.47 179.97 776.22 177.84 766.8 177.84C757.38 177.84 749.52 179.97 742.35 184.2C735.21 188.43 729.6 194.31 725.55 201.78C721.5 209.28 719.49 217.77 719.49 227.31C719.49 236.85 721.5 245.37 725.55 252.84H725.58Z" fill="#2D2D2D"/>
<path d="M937.11 157.74V296.85H913.65V157.74H937.11ZM927.57 157.74H956.58C966.66 157.74 975.42 159.54 982.92 163.11C990.39 166.68 996.21 171.69 1000.29 178.11C1004.4 184.53 1006.44 192.12 1006.44 200.85C1006.44 209.58 1004.4 217.2 1000.29 223.71C996.18 230.19 990.39 235.23 982.92 238.8C975.42 242.37 966.66 244.17 956.58 244.17H927.57V224.91H955.59C960.9 224.91 965.55 223.98 969.6 222.12C973.65 220.26 976.77 217.59 979.02 214.08C981.27 210.57 982.41 206.37 982.41 201.45C982.41 196.53 981.27 192.18 979.02 188.73C976.77 185.28 973.62 182.64 969.6 180.78C965.55 178.92 960.9 177.99 955.59 177.99H927.57V157.71V157.74ZM967.71 230.49L1014.81 296.85H986.58L942.27 230.49H967.71Z" fill="#2D2D2D"/>
<path d="M1114.74 248.16L1114.35 253.32L1095.06 296.85H1068.63L1136.58 150L1204.53 296.85H1178.1L1159.23 254.52L1158.63 248.76L1136.58 197.1L1114.71 248.16H1114.74ZM1104.6 241.2H1169.19L1173.75 261.06H1100.22L1104.6 241.2Z" fill="#2D2D2D"/>
</svg>
