<svg width="1050" height="450" viewBox="0 0 1050 450" fill="none" xmlns="http://www.w3.org/2000/svg">
<g clip-path="url(#clip0_8_818)">
<path d="M667.86 237.18C702.57 237.18 730.8 208.95 730.8 174.24C730.8 139.53 702.57 111.3 667.86 111.3H513.75C529.11 118.56 542.76 128.79 553.98 141.3H667.86C686.04 141.3 700.8 156.09 700.8 174.24C700.8 192.39 686.01 207.18 667.86 207.18H618.33C606.93 207.18 596.97 214.05 592.95 224.73C588.93 235.41 591.84 247.14 600.36 254.67L683.64 328.26L695.67 298.86L625.89 237.21H667.86V237.18Z" fill="#FF6600"/>
<path d="M738.45 336.87L738.57 336.75L738.54 336.69L738.45 336.87Z" fill="#FF6600"/>
<path d="M785.43 111L692.46 338.46H724.86L746.64 285.21H824.37L846.15 338.46H878.55L785.55 111H785.4H785.43ZM799.14 255.18H758.88L785.49 190.08L812.1 255.18H799.14Z" fill="#FF6600"/>
<path d="M375.93 131.52V111.57H345.93V171.78C353.19 156.42 363.42 142.74 375.93 131.52Z" fill="#FF6600"/>
<path d="M460.05 111.27C404.76 111.27 358.5 150.81 348.12 203.13C360.75 214.2 370.98 227.97 377.91 243.51C376.62 237.69 375.93 231.63 375.93 225.42C375.93 179.04 413.67 141.27 460.08 141.27C506.49 141.27 544.23 179.01 544.23 225.42C544.23 271.83 506.49 309.57 460.08 309.57C426.84 309.57 398.04 290.19 384.39 262.14C386.7 271.26 387.93 280.83 387.93 290.67V313.8C407.61 329.88 432.72 339.57 460.08 339.57C523.02 339.57 574.23 288.36 574.23 225.42C574.23 162.48 522.99 111.27 460.05 111.27Z" fill="#FF6600"/>
<path d="M171 205.59V338.91H201V243.63C188.52 233.25 178.26 220.29 171 205.59Z" fill="#FF6600"/>
<path d="M275.4 258.6H324.96C315.09 242.22 297.96 230.67 278.01 228.6H275.4C234.39 228.6 201 195.21 201 154.2V111.57H171V154.2C171 211.77 217.83 258.6 275.4 258.6Z" fill="#FF6600"/>
<path d="M375.93 290.67C375.93 233.1 329.1 186.27 271.53 186.27H221.97C231.84 202.65 248.97 214.2 268.92 216.27H271.53C312.54 216.27 345.93 249.66 345.93 290.67V338.94H375.93V290.67Z" fill="#FF6600"/>
</g>
<defs>
<clipPath id="clip0_8_818">
<rect width="707.55" height="228.54" fill="white" transform="translate(171 111)"/>
</clipPath>
</defs>
</svg>
