<svg width="1200" height="350" viewBox="0 0 1200 350" fill="none" xmlns="http://www.w3.org/2000/svg">
<g clip-path="url(#clip0_8_726)">
<path d="M172.015 130.973L178.984 131.019V83H165V165.141L178.984 181.64V145.081L171.969 145.034L172.015 130.973Z" fill="#FF6600"/>
<path d="M215.551 145.221L208.606 145.198V216.559L222.59 233.058V83H208.606V131.137L215.621 131.16L215.551 145.221Z" fill="#FF6600"/>
<path d="M215.551 145.221L215.621 131.16L208.606 131.137L178.984 131.02L172.015 130.973L171.969 145.034L178.984 145.081L208.606 145.198L215.551 145.221Z" fill="#FF6600"/>
<path d="M288.29 258.79L297.426 248.01L272.978 221.738H253.82L288.29 258.79Z" fill="#FF6600"/>
<path d="M355.04 131.066H325.417V145.128H355.04V131.066Z" fill="#FF6600"/>
<path d="M295.795 83.1172H238.205V145.128H295.795V83.1172ZM281.811 131.066H252.189V97.1785H281.811V131.066Z" fill="#FF6600"/>
<path d="M311.433 231.487L325.417 214.989V145.128V131.066V97.1785H355.016V131.066V145.128V180.07L369 163.571V83.1172H311.433V231.487Z" fill="#FF6600"/>
<path d="M238.205 214.708H252.189V221.738H295.795V159.728H238.205V214.708ZM252.189 173.766H281.811V207.654H252.189V173.766Z" fill="#FF6600"/>
<path d="M252.189 214.708H238.205V221.738V251.501L252.189 268V221.738V214.708Z" fill="#FF6600"/>
</g>
<path d="M461.151 176.257H469.601L482.36 194.5H472.903L461.151 176.257ZM452.253 155.327H460.256V194.5H452.253V155.327ZM457.122 162.154V155.327H465.404C468.501 155.327 471.131 155.849 473.295 156.894C475.458 157.939 477.119 159.394 478.275 161.259C479.432 163.124 480.01 165.307 480.01 167.806C480.01 170.269 479.432 172.451 478.275 174.354C477.119 176.219 475.458 177.674 473.295 178.719C471.131 179.764 468.501 180.286 465.404 180.286H457.122V173.906H464.9C466.318 173.906 467.531 173.682 468.538 173.235C469.582 172.75 470.385 172.078 470.944 171.22C471.504 170.325 471.784 169.261 471.784 168.03C471.784 166.799 471.504 165.755 470.944 164.896C470.385 164.001 469.582 163.33 468.538 162.882C467.531 162.397 466.318 162.154 464.9 162.154H457.122ZM511.691 194.5V187.729H531.445V194.5H511.691ZM511.691 162.098V155.327H531.445V162.098H511.691ZM511.691 177.04V170.381H530.326V177.04H511.691ZM506.542 155.327H514.265V194.5H506.542V155.327ZM527.36 142.512L517.287 150.906L513.202 148.78L521.596 139.826L527.36 142.512ZM562.332 181.349C563.153 182.804 564.048 184.073 565.018 185.154C566.026 186.236 567.126 187.076 568.32 187.673C569.514 188.27 570.801 188.568 572.181 188.568C573.785 188.568 575.091 188.158 576.099 187.337C577.106 186.516 577.61 185.397 577.61 183.979C577.61 182.748 577.292 181.759 576.658 181.013C576.061 180.267 575.147 179.614 573.916 179.055C572.722 178.458 571.249 177.824 569.495 177.152C568.562 176.816 567.481 176.369 566.249 175.809C565.056 175.212 563.918 174.466 562.836 173.57C561.754 172.638 560.858 171.519 560.15 170.213C559.441 168.87 559.086 167.265 559.086 165.4C559.086 163.162 559.646 161.24 560.765 159.636C561.922 157.995 563.47 156.745 565.41 155.887C567.387 154.991 569.588 154.544 572.013 154.544C574.513 154.544 576.658 154.973 578.449 155.831C580.277 156.651 581.788 157.715 582.982 159.021C584.213 160.289 585.164 161.613 585.836 162.994L579.568 166.463C579.046 165.531 578.412 164.691 577.665 163.945C576.957 163.162 576.136 162.546 575.203 162.098C574.27 161.613 573.207 161.371 572.013 161.371C570.446 161.371 569.271 161.744 568.488 162.49C567.704 163.199 567.313 164.038 567.313 165.008C567.313 165.978 567.63 166.836 568.264 167.583C568.898 168.291 569.868 168.982 571.174 169.653C572.48 170.287 574.121 170.94 576.099 171.612C577.367 172.06 578.58 172.619 579.736 173.291C580.93 173.962 581.993 174.783 582.926 175.753C583.896 176.686 584.642 177.805 585.164 179.111C585.724 180.379 586.004 181.853 586.004 183.532C586.004 185.434 585.631 187.132 584.884 188.624C584.138 190.116 583.112 191.385 581.807 192.429C580.501 193.437 579.027 194.202 577.386 194.724C575.781 195.283 574.084 195.563 572.293 195.563C569.905 195.563 567.667 195.116 565.578 194.22C563.526 193.288 561.735 192.038 560.206 190.471C558.676 188.904 557.482 187.206 556.624 185.378L562.332 181.349ZM617.263 194.5V187.729H637.017V194.5H617.263ZM617.263 162.098V155.327H637.017V162.098H617.263ZM617.263 177.04V170.381H635.898V177.04H617.263ZM612.114 155.327H619.837V194.5H612.114V155.327ZM669.919 185.602L670.87 179.279H689.673L690.625 185.602H669.919ZM680.16 168.03L674.284 181.517L674.452 183.308L669.303 194.5H660.294L680.16 153.033L700.026 194.5H690.961L685.924 183.644L686.036 181.629L680.16 168.03ZM723.582 155.327H731.585V181.125C731.585 183.364 732.163 185.173 733.32 186.553C734.514 187.897 736.267 188.568 738.58 188.568C740.893 188.568 742.628 187.897 743.785 186.553C744.978 185.173 745.575 183.364 745.575 181.125V155.327H753.578V181.629C753.578 183.942 753.205 185.975 752.459 187.729C751.712 189.482 750.649 190.956 749.269 192.15C747.926 193.343 746.34 194.239 744.512 194.836C742.684 195.47 740.707 195.787 738.58 195.787C736.416 195.787 734.42 195.47 732.592 194.836C730.764 194.239 729.179 193.343 727.836 192.15C726.492 190.956 725.448 189.482 724.702 187.729C723.956 185.975 723.582 183.942 723.582 181.629V155.327ZM820.315 177.264V170.045H849.079V177.264H820.315ZM843.987 155.327H851.989V194.5H843.987V155.327ZM817.685 155.327H825.687V194.5H817.685V155.327ZM886.219 174.914C886.219 177.413 886.742 179.633 887.786 181.573C888.831 183.513 890.267 185.043 892.095 186.162C893.923 187.281 896.05 187.841 898.475 187.841C900.9 187.841 903.026 187.281 904.854 186.162C906.682 185.043 908.1 183.513 909.107 181.573C910.152 179.633 910.674 177.413 910.674 174.914C910.674 172.414 910.171 170.194 909.163 168.254C908.156 166.314 906.738 164.785 904.91 163.665C903.082 162.546 900.937 161.986 898.475 161.986C896.05 161.986 893.923 162.546 892.095 163.665C890.267 164.785 888.831 166.314 887.786 168.254C886.742 170.194 886.219 172.414 886.219 174.914ZM877.769 174.914C877.769 171.929 878.291 169.205 879.336 166.743C880.381 164.244 881.836 162.08 883.701 160.252C885.566 158.424 887.749 157.025 890.248 156.055C892.785 155.047 895.527 154.544 898.475 154.544C901.459 154.544 904.201 155.047 906.701 156.055C909.201 157.025 911.383 158.424 913.249 160.252C915.151 162.08 916.606 164.244 917.614 166.743C918.658 169.205 919.18 171.929 919.18 174.914C919.18 177.861 918.658 180.603 917.614 183.14C916.606 185.639 915.17 187.822 913.305 189.687C911.476 191.553 909.294 193.008 906.757 194.052C904.257 195.06 901.497 195.563 898.475 195.563C895.453 195.563 892.673 195.06 890.137 194.052C887.637 193.008 885.454 191.553 883.589 189.687C881.724 187.822 880.287 185.639 879.28 183.14C878.273 180.603 877.769 177.861 877.769 174.914ZM953.851 176.257H962.301L975.06 194.5H965.603L953.851 176.257ZM944.953 155.327H952.956V194.5H944.953V155.327ZM949.822 162.154V155.327H958.104C961.201 155.327 963.831 155.849 965.995 156.894C968.159 157.939 969.819 159.394 970.975 161.259C972.132 163.124 972.71 165.307 972.71 167.806C972.71 170.269 972.132 172.451 970.975 174.354C969.819 176.219 968.159 177.674 965.995 178.719C963.831 179.764 961.201 180.286 958.104 180.286H949.822V173.906H957.601C959.018 173.906 960.231 173.682 961.238 173.235C962.283 172.75 963.085 172.078 963.644 171.22C964.204 170.325 964.484 169.261 964.484 168.03C964.484 166.799 964.204 165.755 963.644 164.896C963.085 164.001 962.283 163.33 961.238 162.882C960.231 162.397 959.018 162.154 957.601 162.154H949.822ZM1004.67 185.602L1005.62 179.279H1024.42L1025.38 185.602H1004.67ZM1014.91 168.03L1009.04 181.517L1009.2 183.308L1004.05 194.5H995.045L1014.91 153.033L1034.78 194.5H1025.71L1020.68 183.644L1020.79 181.629L1014.91 168.03Z" fill="#2D2D2D"/>
<defs>
<clipPath id="clip0_8_726">
<rect width="204" height="185" fill="white" transform="translate(165 83)"/>
</clipPath>
</defs>
</svg>
