<svg width="1350" height="450" viewBox="0 0 1350 450" fill="none" xmlns="http://www.w3.org/2000/svg">
<path d="M348.93 238.8V111.12H318.93V200.79C331.41 211.17 341.67 224.13 348.93 238.83V238.8Z" fill="#FF6600"/>
<path d="M144 205.14V338.46H174V243.18C161.52 232.8 151.26 219.84 144 205.14Z" fill="#FF6600"/>
<path d="M248.4 258.15H297.96C288.09 241.77 270.96 230.22 251.01 228.15H248.4C207.39 228.15 174 194.76 174 153.75V111.12H144V153.75C144 211.32 190.83 258.15 248.4 258.15Z" fill="#FF6600"/>
<path d="M244.53 185.82H194.97C204.84 202.2 221.97 213.75 241.92 215.82H244.53C285.54 215.82 318.93 249.21 318.93 290.22V338.49H348.93V290.22C348.93 232.65 302.1 185.82 244.53 185.82Z" fill="#FF6600"/>
<path d="M526.56 125.79V264.9H503.1V125.79H526.56ZM512.46 179.46H611.61V201.12H512.46V179.46ZM619.95 125.79V264.9H596.49V125.79H619.95Z" fill="#2D2D2D"/>
<path d="M700.05 166.53C703.62 157.77 708.69 150.21 715.26 143.79C721.83 137.37 729.51 132.36 738.3 128.79C747.12 125.22 756.6 123.42 766.8 123.42C777 123.42 786.87 125.22 795.63 128.79C804.36 132.36 812.01 137.37 818.58 143.79C825.15 150.21 830.22 157.8 833.79 166.53C837.36 175.26 839.16 184.89 839.16 195.33C839.16 205.77 837.36 215.28 833.79 224.13C830.22 233.01 825.18 240.69 818.7 247.17C812.22 253.65 804.57 258.72 795.75 262.38C786.93 266.01 777.3 267.84 766.83 267.84C756.36 267.84 746.88 266.01 738.03 262.38C729.15 258.75 721.5 253.68 715.08 247.17C708.66 240.69 703.65 233.01 700.08 224.13C696.51 215.25 694.71 205.65 694.71 195.33C694.71 185.01 696.51 175.26 700.08 166.53H700.05ZM725.58 220.89C729.63 228.39 735.21 234.24 742.38 238.47C749.55 242.7 757.68 244.83 766.83 244.83C775.98 244.83 784.29 242.7 791.37 238.47C798.45 234.24 804.03 228.36 808.05 220.89C812.1 213.42 814.11 204.9 814.11 195.36C814.11 185.82 812.13 177.3 808.14 169.83C804.18 162.36 798.63 156.48 791.55 152.25C784.47 148.02 776.22 145.89 766.8 145.89C757.38 145.89 749.52 148.02 742.35 152.25C735.21 156.48 729.6 162.36 725.55 169.83C721.5 177.33 719.49 185.82 719.49 195.36C719.49 204.9 721.5 213.42 725.55 220.89H725.58Z" fill="#2D2D2D"/>
<path d="M937.11 125.79V264.9H913.65V125.79H937.11ZM927.57 125.79H956.58C966.66 125.79 975.42 127.59 982.92 131.16C990.39 134.73 996.21 139.74 1000.29 146.16C1004.4 152.58 1006.44 160.17 1006.44 168.9C1006.44 177.63 1004.4 185.25 1000.29 191.76C996.18 198.24 990.39 203.28 982.92 206.85C975.42 210.42 966.66 212.22 956.58 212.22H927.57V192.96H955.59C960.9 192.96 965.55 192.03 969.6 190.17C973.65 188.31 976.77 185.64 979.02 182.13C981.27 178.62 982.41 174.42 982.41 169.5C982.41 164.58 981.27 160.23 979.02 156.78C976.77 153.33 973.62 150.69 969.6 148.83C965.55 146.97 960.9 146.04 955.59 146.04H927.57V125.76V125.79ZM967.71 198.54L1014.81 264.9H986.58L942.27 198.54H967.71Z" fill="#2D2D2D"/>
<path d="M1114.74 216.21L1114.35 221.37L1095.06 264.9H1068.63L1136.58 118.05L1204.53 264.9H1178.1L1159.23 222.57L1158.63 216.81L1136.58 165.15L1114.71 216.21H1114.74ZM1104.6 209.25H1169.19L1173.75 229.11H1100.22L1104.6 209.25Z" fill="#2D2D2D"/>
<path d="M510.15 329.22L510.06 330.21L506.4 338.49H501.36L514.29 310.53L527.22 338.49H522.18L518.58 330.42L518.46 329.31L514.26 319.47L510.09 329.19L510.15 329.22ZM508.2 327.87H520.5L521.37 331.65H507.36L508.2 327.87Z" fill="#2D2D2D"/>
<path d="M560.31 312H565.44L552.51 339.96L539.58 312H544.71L552.51 330.63L560.31 312Z" fill="#2D2D2D"/>
<path d="M583.35 319.74C584.04 318.09 585 316.62 586.23 315.42C587.49 314.19 588.93 313.26 590.61 312.57C592.29 311.88 594.09 311.55 596.04 311.55C597.99 311.55 599.88 311.88 601.53 312.57C603.18 313.26 604.65 314.19 605.91 315.42C607.17 316.65 608.13 318.09 608.79 319.74C609.48 321.39 609.81 323.25 609.81 325.23C609.81 327.21 609.48 329.04 608.79 330.72C608.1 332.4 607.14 333.87 605.91 335.1C604.68 336.33 603.21 337.29 601.53 337.98C599.85 338.67 598.02 339.03 596.01 339.03C594 339.03 592.2 338.67 590.52 337.98C588.84 337.29 587.37 336.33 586.14 335.1C584.91 333.87 583.98 332.4 583.29 330.72C582.6 329.04 582.27 327.21 582.27 325.23C582.27 323.25 582.6 321.42 583.29 319.74H583.35ZM588.21 330.09C588.99 331.53 590.04 332.64 591.42 333.45C592.77 334.26 594.33 334.65 596.07 334.65C597.81 334.65 599.4 334.26 600.75 333.45C602.1 332.64 603.15 331.53 603.93 330.09C604.71 328.68 605.07 327.06 605.07 325.23C605.07 323.4 604.71 321.78 603.93 320.37C603.18 318.96 602.13 317.82 600.78 317.01C599.43 316.2 597.87 315.81 596.07 315.81C594.27 315.81 592.77 316.2 591.42 317.01C590.07 317.82 588.99 318.93 588.21 320.37C587.43 321.81 587.07 323.43 587.07 325.23C587.07 327.03 587.46 328.68 588.21 330.09Z" fill="#2D2D2D"/>
<path d="M634.65 330.15C635.49 331.56 636.6 332.64 637.98 333.42C639.36 334.2 640.86 334.56 642.48 334.56C643.74 334.56 644.88 334.41 645.87 334.08C646.86 333.75 647.79 333.3 648.6 332.73C649.41 332.16 650.13 331.53 650.73 330.81V336.12C649.62 337.02 648.42 337.71 647.13 338.19C645.84 338.67 644.22 338.91 642.3 338.91C640.38 338.91 638.55 338.58 636.87 337.92C635.19 337.26 633.75 336.33 632.49 335.07C631.26 333.84 630.3 332.37 629.61 330.69C628.92 329.01 628.56 327.18 628.56 325.2C628.56 323.22 628.92 321.36 629.61 319.71C630.3 318.03 631.26 316.59 632.49 315.33C633.72 314.07 635.19 313.14 636.87 312.48C638.55 311.82 640.35 311.49 642.3 311.49C644.25 311.49 645.87 311.73 647.13 312.21C648.42 312.69 649.62 313.38 650.73 314.28V319.59C650.13 318.87 649.41 318.24 648.6 317.67C647.79 317.1 646.86 316.65 645.87 316.32C644.88 315.99 643.74 315.84 642.48 315.84C640.86 315.84 639.36 316.23 637.98 316.98C636.6 317.76 635.49 318.84 634.65 320.22C633.81 321.6 633.39 323.28 633.39 325.17C633.39 327.06 633.81 328.68 634.65 330.09V330.15Z" fill="#2D2D2D"/>
<path d="M677.49 329.22L677.4 330.21L673.74 338.49H668.7L681.63 310.53L694.56 338.49H689.52L685.92 330.42L685.8 329.31L681.6 319.47L677.43 329.19L677.49 329.22ZM675.57 327.87H687.87L688.74 331.65H674.73L675.57 327.87Z" fill="#2D2D2D"/>
<path d="M708.24 312H726.72V316.14H719.73V338.49H715.23V316.14H708.27V312H708.24Z" fill="#2D2D2D"/>
<path d="M749.49 332.64C750.15 333.42 750.9 333.99 751.71 334.41C752.52 334.83 753.42 335.04 754.44 335.04C755.64 335.04 756.63 334.71 757.38 334.05C758.13 333.39 758.52 332.55 758.52 331.53C758.52 330.51 758.28 329.76 757.8 329.16C757.32 328.56 756.66 328.05 755.82 327.66C754.98 327.24 753.99 326.82 752.88 326.43C752.22 326.19 751.5 325.89 750.69 325.5C749.88 325.11 749.1 324.63 748.38 324.03C747.66 323.43 747.03 322.71 746.55 321.84C746.07 320.97 745.83 319.92 745.83 318.69C745.83 317.28 746.19 316.05 746.94 314.97C747.69 313.89 748.65 313.08 749.91 312.48C751.17 311.88 752.58 311.58 754.17 311.58C755.76 311.58 757.08 311.85 758.25 312.42C759.42 312.99 760.38 313.68 761.19 314.55C761.97 315.42 762.6 316.29 763.05 317.25L759.42 319.29C759.09 318.63 758.67 318.03 758.16 317.46C757.65 316.89 757.08 316.44 756.39 316.11C755.7 315.78 754.95 315.6 754.05 315.6C752.82 315.6 751.92 315.87 751.32 316.44C750.72 317.01 750.45 317.67 750.45 318.42C750.45 319.11 750.66 319.71 751.08 320.25C751.5 320.79 752.16 321.3 753.03 321.78C753.9 322.26 755.07 322.74 756.48 323.25C757.26 323.52 758.04 323.88 758.85 324.3C759.63 324.72 760.38 325.26 761.01 325.92C761.67 326.55 762.18 327.3 762.57 328.17C762.96 329.04 763.17 330.03 763.17 331.2C763.17 332.43 762.93 333.54 762.45 334.53C761.97 335.52 761.31 336.33 760.5 337.02C759.69 337.71 758.73 338.22 757.68 338.58C756.63 338.94 755.55 339.12 754.41 339.12C752.85 339.12 751.41 338.82 750.09 338.19C748.77 337.56 747.6 336.75 746.64 335.7C745.68 334.65 744.87 333.54 744.3 332.34L747.63 330.03C748.2 331.05 748.83 331.92 749.49 332.7V332.64Z" fill="#2D2D2D"/>
<path d="M811.92 320.49C812.43 319.98 813.06 319.71 813.78 319.71C814.56 319.71 815.19 319.98 815.7 320.49C816.21 321 816.45 321.63 816.45 322.35C816.45 323.07 816.21 323.67 815.7 324.21C815.19 324.75 814.56 324.99 813.78 324.99C813.06 324.99 812.43 324.72 811.92 324.21C811.41 323.67 811.14 323.07 811.14 322.35C811.14 321.63 811.41 321 811.92 320.49Z" fill="#2D2D2D"/>
<path d="M871.35 329.22L871.26 330.21L867.6 338.49H862.56L875.49 310.53L888.42 338.49H883.38L879.78 330.42L879.66 329.31L875.46 319.47L871.29 329.19L871.35 329.22ZM869.4 327.87H881.7L882.57 331.65H868.56L869.4 327.87Z" fill="#2D2D2D"/>
<path d="M902.1 312H920.58V316.14H913.59V338.49H909.09V316.14H902.13V312H902.1Z" fill="#2D2D2D"/>
<path d="M938.19 312H956.67V316.14H949.68V338.49H945.18V316.14H938.22V312H938.19Z" fill="#2D2D2D"/>
<path d="M973.44 319.74C974.13 318.09 975.09 316.62 976.32 315.42C977.58 314.19 979.02 313.26 980.7 312.57C982.38 311.88 984.18 311.55 986.13 311.55C988.08 311.55 989.97 311.88 991.62 312.57C993.27 313.26 994.74 314.19 996 315.42C997.26 316.65 998.22 318.09 998.88 319.74C999.57 321.39 999.9 323.25 999.9 325.23C999.9 327.21 999.57 329.04 998.88 330.72C998.19 332.4 997.23 333.87 996 335.1C994.77 336.33 993.3 337.29 991.62 337.98C989.94 338.67 988.11 339.03 986.1 339.03C984.09 339.03 982.29 338.67 980.61 337.98C978.93 337.29 977.46 336.33 976.23 335.1C975 333.87 974.07 332.4 973.38 330.72C972.69 329.04 972.36 327.21 972.36 325.23C972.36 323.25 972.69 321.42 973.38 319.74H973.44ZM978.3 330.09C979.08 331.53 980.13 332.64 981.51 333.45C982.86 334.26 984.42 334.65 986.16 334.65C987.9 334.65 989.49 334.26 990.84 333.45C992.19 332.64 993.24 331.53 994.02 330.09C994.8 328.68 995.16 327.06 995.16 325.23C995.16 323.4 994.8 321.78 994.02 320.37C993.27 318.96 992.22 317.82 990.87 317.01C989.52 316.2 987.96 315.81 986.16 315.81C984.36 315.81 982.86 316.2 981.51 317.01C980.16 317.82 979.08 318.93 978.3 320.37C977.52 321.81 977.16 323.43 977.16 325.23C977.16 327.03 977.55 328.68 978.3 330.09Z" fill="#2D2D2D"/>
<path d="M1024.62 312V338.49H1020.15V312H1024.62ZM1022.82 312H1028.34C1030.26 312 1031.94 312.33 1033.35 313.02C1034.79 313.71 1035.87 314.64 1036.68 315.87C1037.46 317.1 1037.85 318.54 1037.85 320.19C1037.85 321.84 1037.46 323.31 1036.68 324.54C1035.9 325.77 1034.79 326.73 1033.35 327.42C1031.94 328.11 1030.26 328.44 1028.34 328.44H1022.82V324.78H1028.16C1029.18 324.78 1030.05 324.6 1030.83 324.24C1031.61 323.88 1032.21 323.37 1032.63 322.71C1033.05 322.05 1033.26 321.24 1033.26 320.31C1033.26 319.38 1033.05 318.54 1032.63 317.88C1032.21 317.22 1031.61 316.71 1030.83 316.38C1030.05 316.02 1029.18 315.84 1028.16 315.84H1022.82V311.97V312ZM1030.44 325.83L1039.41 338.46H1034.04L1025.61 325.83H1030.44Z" fill="#2D2D2D"/>
<path d="M1082.28 312V339.81L1062.96 320.7V338.49H1058.58V310.68L1077.93 329.79V312H1082.31H1082.28Z" fill="#2D2D2D"/>
<path d="M1108.44 312V338.49H1104.06V312H1108.44ZM1106.82 312H1120.17V315.93H1106.82V312ZM1106.82 322.35H1119.42V326.22H1106.82V322.35ZM1106.82 334.53H1120.17V338.46H1106.82V334.53Z" fill="#2D2D2D"/>
<path d="M1161.24 312L1152.24 327.33V338.49H1147.71V327.36L1138.74 312H1143.81L1149.99 323.34L1156.17 312H1161.27H1161.24Z" fill="#2D2D2D"/>
<path d="M1183.8 332.64C1184.46 333.42 1185.21 333.99 1186.02 334.41C1186.83 334.83 1187.73 335.04 1188.75 335.04C1189.95 335.04 1190.94 334.71 1191.69 334.05C1192.44 333.39 1192.83 332.55 1192.83 331.53C1192.83 330.51 1192.59 329.76 1192.11 329.16C1191.63 328.56 1190.97 328.05 1190.13 327.66C1189.29 327.24 1188.3 326.82 1187.19 326.43C1186.53 326.19 1185.81 325.89 1185 325.5C1184.19 325.11 1183.41 324.63 1182.69 324.03C1181.97 323.43 1181.34 322.71 1180.86 321.84C1180.38 320.97 1180.14 319.92 1180.14 318.69C1180.14 317.28 1180.5 316.05 1181.25 314.97C1182 313.89 1182.96 313.08 1184.22 312.48C1185.48 311.88 1186.89 311.58 1188.48 311.58C1190.07 311.58 1191.39 311.85 1192.56 312.42C1193.73 312.99 1194.69 313.68 1195.5 314.55C1196.28 315.42 1196.91 316.29 1197.36 317.25L1193.73 319.29C1193.4 318.63 1192.98 318.03 1192.47 317.46C1191.96 316.89 1191.39 316.44 1190.7 316.11C1190.01 315.78 1189.26 315.6 1188.36 315.6C1187.13 315.6 1186.23 315.87 1185.63 316.44C1185.03 317.01 1184.76 317.67 1184.76 318.42C1184.76 319.11 1184.97 319.71 1185.39 320.25C1185.81 320.79 1186.47 321.3 1187.34 321.78C1188.21 322.26 1189.38 322.74 1190.79 323.25C1191.57 323.52 1192.35 323.88 1193.16 324.3C1193.94 324.72 1194.69 325.26 1195.32 325.92C1195.98 326.55 1196.49 327.3 1196.88 328.17C1197.27 329.04 1197.48 330.03 1197.48 331.2C1197.48 332.43 1197.24 333.54 1196.76 334.53C1196.28 335.52 1195.62 336.33 1194.81 337.02C1194 337.71 1193.04 338.22 1191.99 338.58C1190.94 338.94 1189.86 339.12 1188.72 339.12C1187.16 339.12 1185.72 338.82 1184.4 338.19C1183.08 337.56 1181.91 336.75 1180.95 335.7C1179.99 334.65 1179.18 333.54 1178.61 332.34L1181.94 330.03C1182.51 331.05 1183.14 331.92 1183.8 332.7V332.64Z" fill="#2D2D2D"/>
</svg>
