<svg width="1062" height="256" viewBox="0 0 1062 256" fill="none" xmlns="http://www.w3.org/2000/svg">
<path d="M204.93 142.8V15.1199H174.93V104.79C187.41 115.17 197.67 128.13 204.93 142.83V142.8Z" fill="#FF6600"/>
<path d="M0 109.14V242.46H30V147.18C17.52 136.8 7.26 123.84 0 109.14Z" fill="#FF6600"/>
<path d="M104.4 162.15H153.96C144.09 145.77 126.96 134.22 107.01 132.15H104.4C63.39 132.15 30 98.7599 30 57.7499V15.1199H0V57.7499C0 115.32 46.83 162.15 104.4 162.15Z" fill="#FF6600"/>
<path d="M100.53 89.8198H50.97C60.84 106.2 77.97 117.75 97.92 119.82H100.53C141.54 119.82 174.93 153.21 174.93 194.22V242.49H204.93V194.22C204.93 136.65 158.1 89.8198 100.53 89.8198Z" fill="#FF6600"/>
<path d="M382.56 29.7898V168.9H359.1V29.7898H382.56ZM368.46 83.4598H467.61V105.12H368.46V83.4598ZM475.95 29.7898V168.9H452.49V29.7898H475.95Z" fill="#2D2D2D"/>
<path d="M556.05 70.5297C559.62 61.7697 564.69 54.2097 571.26 47.7897C577.83 41.3697 585.51 36.3597 594.3 32.7897C603.12 29.2197 612.6 27.4197 622.8 27.4197C633 27.4197 642.87 29.2197 651.63 32.7897C660.36 36.3597 668.01 41.3697 674.58 47.7897C681.15 54.2097 686.22 61.7997 689.79 70.5297C693.36 79.2597 695.16 88.8897 695.16 99.3297C695.16 109.77 693.36 119.28 689.79 128.13C686.22 137.01 681.18 144.69 674.7 151.17C668.22 157.65 660.57 162.72 651.75 166.38C642.93 170.01 633.3 171.84 622.83 171.84C612.36 171.84 602.88 170.01 594.03 166.38C585.15 162.75 577.5 157.68 571.08 151.17C564.66 144.69 559.65 137.01 556.08 128.13C552.51 119.25 550.71 109.65 550.71 99.3297C550.71 89.0097 552.51 79.2597 556.08 70.5297H556.05ZM581.58 124.89C585.63 132.39 591.21 138.24 598.38 142.47C605.55 146.7 613.68 148.83 622.83 148.83C631.98 148.83 640.29 146.7 647.37 142.47C654.45 138.24 660.03 132.36 664.05 124.89C668.1 117.42 670.11 108.9 670.11 99.3597C670.11 89.8197 668.13 81.2997 664.14 73.8297C660.18 66.3597 654.63 60.4797 647.55 56.2497C640.47 52.0197 632.22 49.8897 622.8 49.8897C613.38 49.8897 605.52 52.0197 598.35 56.2497C591.21 60.4797 585.6 66.3597 581.55 73.8297C577.5 81.3297 575.49 89.8197 575.49 99.3597C575.49 108.9 577.5 117.42 581.55 124.89H581.58Z" fill="#2D2D2D"/>
<path d="M793.11 29.7898V168.9H769.65V29.7898H793.11ZM783.57 29.7898H812.58C822.66 29.7898 831.42 31.5898 838.92 35.1598C846.39 38.7298 852.21 43.7398 856.29 50.1598C860.4 56.5798 862.44 64.1698 862.44 72.8998C862.44 81.6298 860.4 89.2498 856.29 95.7598C852.18 102.24 846.39 107.28 838.92 110.85C831.42 114.42 822.66 116.22 812.58 116.22H783.57V96.9598H811.59C816.9 96.9598 821.55 96.0298 825.6 94.1698C829.65 92.3098 832.77 89.6398 835.02 86.1298C837.27 82.6198 838.41 78.4198 838.41 73.4998C838.41 68.5798 837.27 64.2298 835.02 60.7798C832.77 57.3298 829.62 54.6898 825.6 52.8298C821.55 50.9698 816.9 50.0398 811.59 50.0398H783.57V29.7598V29.7898ZM823.71 102.54L870.81 168.9H842.58L798.27 102.54H823.71Z" fill="#2D2D2D"/>
<path d="M970.74 120.21L970.35 125.37L951.06 168.9H924.63L992.58 22.0498L1060.53 168.9H1034.1L1015.23 126.57L1014.63 120.81L992.58 69.1498L970.71 120.21H970.74ZM960.6 113.25H1025.19L1029.75 133.11H956.22L960.6 113.25Z" fill="#2D2D2D"/>
<path d="M366.15 233.22L366.06 234.21L362.4 242.49H357.36L370.29 214.53L383.22 242.49H378.18L374.58 234.42L374.46 233.31L370.26 223.47L366.09 233.19L366.15 233.22ZM364.2 231.87H376.5L377.37 235.65H363.36L364.2 231.87Z" fill="#2D2D2D"/>
<path d="M416.31 216H421.44L408.51 243.96L395.58 216H400.71L408.51 234.63L416.31 216Z" fill="#2D2D2D"/>
<path d="M439.35 223.74C440.04 222.09 441 220.62 442.23 219.42C443.49 218.19 444.93 217.26 446.61 216.57C448.29 215.88 450.09 215.55 452.04 215.55C453.99 215.55 455.88 215.88 457.53 216.57C459.18 217.26 460.65 218.19 461.91 219.42C463.17 220.65 464.13 222.09 464.79 223.74C465.48 225.39 465.81 227.25 465.81 229.23C465.81 231.21 465.48 233.04 464.79 234.72C464.1 236.4 463.14 237.87 461.91 239.1C460.68 240.33 459.21 241.29 457.53 241.98C455.85 242.67 454.02 243.03 452.01 243.03C450 243.03 448.2 242.67 446.52 241.98C444.84 241.29 443.37 240.33 442.14 239.1C440.91 237.87 439.98 236.4 439.29 234.72C438.6 233.04 438.27 231.21 438.27 229.23C438.27 227.25 438.6 225.42 439.29 223.74H439.35ZM444.21 234.09C444.99 235.53 446.04 236.64 447.42 237.45C448.77 238.26 450.33 238.65 452.07 238.65C453.81 238.65 455.4 238.26 456.75 237.45C458.1 236.64 459.15 235.53 459.93 234.09C460.71 232.68 461.07 231.06 461.07 229.23C461.07 227.4 460.71 225.78 459.93 224.37C459.18 222.96 458.13 221.82 456.78 221.01C455.43 220.2 453.87 219.81 452.07 219.81C450.27 219.81 448.77 220.2 447.42 221.01C446.07 221.82 444.99 222.93 444.21 224.37C443.43 225.81 443.07 227.43 443.07 229.23C443.07 231.03 443.46 232.68 444.21 234.09Z" fill="#2D2D2D"/>
<path d="M490.65 234.15C491.49 235.56 492.6 236.64 493.98 237.42C495.36 238.2 496.86 238.56 498.48 238.56C499.74 238.56 500.88 238.41 501.87 238.08C502.86 237.75 503.79 237.3 504.6 236.73C505.41 236.16 506.13 235.53 506.73 234.81V240.12C505.62 241.02 504.42 241.71 503.13 242.19C501.84 242.67 500.22 242.91 498.3 242.91C496.38 242.91 494.55 242.58 492.87 241.92C491.19 241.26 489.75 240.33 488.49 239.07C487.26 237.84 486.3 236.37 485.61 234.69C484.92 233.01 484.56 231.18 484.56 229.2C484.56 227.22 484.92 225.36 485.61 223.71C486.3 222.03 487.26 220.59 488.49 219.33C489.72 218.07 491.19 217.14 492.87 216.48C494.55 215.82 496.35 215.49 498.3 215.49C500.25 215.49 501.87 215.73 503.13 216.21C504.42 216.69 505.62 217.38 506.73 218.28V223.59C506.13 222.87 505.41 222.24 504.6 221.67C503.79 221.1 502.86 220.65 501.87 220.32C500.88 219.99 499.74 219.84 498.48 219.84C496.86 219.84 495.36 220.23 493.98 220.98C492.6 221.76 491.49 222.84 490.65 224.22C489.81 225.6 489.39 227.28 489.39 229.17C489.39 231.06 489.81 232.68 490.65 234.09V234.15Z" fill="#2D2D2D"/>
<path d="M533.49 233.22L533.4 234.21L529.74 242.49H524.7L537.63 214.53L550.56 242.49H545.52L541.92 234.42L541.8 233.31L537.6 223.47L533.43 233.19L533.49 233.22ZM531.57 231.87H543.87L544.74 235.65H530.73L531.57 231.87Z" fill="#2D2D2D"/>
<path d="M564.24 216H582.72V220.14H575.73V242.49H571.23V220.14H564.27V216H564.24Z" fill="#2D2D2D"/>
<path d="M605.49 236.64C606.15 237.42 606.9 237.99 607.71 238.41C608.52 238.83 609.42 239.04 610.44 239.04C611.64 239.04 612.63 238.71 613.38 238.05C614.13 237.39 614.52 236.55 614.52 235.53C614.52 234.51 614.28 233.76 613.8 233.16C613.32 232.56 612.66 232.05 611.82 231.66C610.98 231.24 609.99 230.82 608.88 230.43C608.22 230.19 607.5 229.89 606.69 229.5C605.88 229.11 605.1 228.63 604.38 228.03C603.66 227.43 603.03 226.71 602.55 225.84C602.07 224.97 601.83 223.92 601.83 222.69C601.83 221.28 602.19 220.05 602.94 218.97C603.69 217.89 604.65 217.08 605.91 216.48C607.17 215.88 608.58 215.58 610.17 215.58C611.76 215.58 613.08 215.85 614.25 216.42C615.42 216.99 616.38 217.68 617.19 218.55C617.97 219.42 618.6 220.29 619.05 221.25L615.42 223.29C615.09 222.63 614.67 222.03 614.16 221.46C613.65 220.89 613.08 220.44 612.39 220.11C611.7 219.78 610.95 219.6 610.05 219.6C608.82 219.6 607.92 219.87 607.32 220.44C606.72 221.01 606.45 221.67 606.45 222.42C606.45 223.11 606.66 223.71 607.08 224.25C607.5 224.79 608.16 225.3 609.03 225.78C609.9 226.26 611.07 226.74 612.48 227.25C613.26 227.52 614.04 227.88 614.85 228.3C615.63 228.72 616.38 229.26 617.01 229.92C617.67 230.55 618.18 231.3 618.57 232.17C618.96 233.04 619.17 234.03 619.17 235.2C619.17 236.43 618.93 237.54 618.45 238.53C617.97 239.52 617.31 240.33 616.5 241.02C615.69 241.71 614.73 242.22 613.68 242.58C612.63 242.94 611.55 243.12 610.41 243.12C608.85 243.12 607.41 242.82 606.09 242.19C604.77 241.56 603.6 240.75 602.64 239.7C601.68 238.65 600.87 237.54 600.3 236.34L603.63 234.03C604.2 235.05 604.83 235.92 605.49 236.7V236.64Z" fill="#2D2D2D"/>
<path d="M667.92 224.49C668.43 223.98 669.06 223.71 669.78 223.71C670.56 223.71 671.19 223.98 671.7 224.49C672.21 225 672.45 225.63 672.45 226.35C672.45 227.07 672.21 227.67 671.7 228.21C671.19 228.75 670.56 228.99 669.78 228.99C669.06 228.99 668.43 228.72 667.92 228.21C667.41 227.67 667.14 227.07 667.14 226.35C667.14 225.63 667.41 225 667.92 224.49Z" fill="#2D2D2D"/>
<path d="M727.35 233.22L727.26 234.21L723.6 242.49H718.56L731.49 214.53L744.42 242.49H739.38L735.78 234.42L735.66 233.31L731.46 223.47L727.29 233.19L727.35 233.22ZM725.4 231.87H737.7L738.57 235.65H724.56L725.4 231.87Z" fill="#2D2D2D"/>
<path d="M758.1 216H776.58V220.14H769.59V242.49H765.09V220.14H758.13V216H758.1Z" fill="#2D2D2D"/>
<path d="M794.19 216H812.67V220.14H805.68V242.49H801.18V220.14H794.22V216H794.19Z" fill="#2D2D2D"/>
<path d="M829.44 223.74C830.13 222.09 831.09 220.62 832.32 219.42C833.58 218.19 835.02 217.26 836.7 216.57C838.38 215.88 840.18 215.55 842.13 215.55C844.08 215.55 845.97 215.88 847.62 216.57C849.27 217.26 850.74 218.19 852 219.42C853.26 220.65 854.22 222.09 854.88 223.74C855.57 225.39 855.9 227.25 855.9 229.23C855.9 231.21 855.57 233.04 854.88 234.72C854.19 236.4 853.23 237.87 852 239.1C850.77 240.33 849.3 241.29 847.62 241.98C845.94 242.67 844.11 243.03 842.1 243.03C840.09 243.03 838.29 242.67 836.61 241.98C834.93 241.29 833.46 240.33 832.23 239.1C831 237.87 830.07 236.4 829.38 234.72C828.69 233.04 828.36 231.21 828.36 229.23C828.36 227.25 828.69 225.42 829.38 223.74H829.44ZM834.3 234.09C835.08 235.53 836.13 236.64 837.51 237.45C838.86 238.26 840.42 238.65 842.16 238.65C843.9 238.65 845.49 238.26 846.84 237.45C848.19 236.64 849.24 235.53 850.02 234.09C850.8 232.68 851.16 231.06 851.16 229.23C851.16 227.4 850.8 225.78 850.02 224.37C849.27 222.96 848.22 221.82 846.87 221.01C845.52 220.2 843.96 219.81 842.16 219.81C840.36 219.81 838.86 220.2 837.51 221.01C836.16 221.82 835.08 222.93 834.3 224.37C833.52 225.81 833.16 227.43 833.16 229.23C833.16 231.03 833.55 232.68 834.3 234.09Z" fill="#2D2D2D"/>
<path d="M880.62 216V242.49H876.15V216H880.62ZM878.82 216H884.34C886.26 216 887.94 216.33 889.35 217.02C890.79 217.71 891.87 218.64 892.68 219.87C893.46 221.1 893.85 222.54 893.85 224.19C893.85 225.84 893.46 227.31 892.68 228.54C891.9 229.77 890.79 230.73 889.35 231.42C887.94 232.11 886.26 232.44 884.34 232.44H878.82V228.78H884.16C885.18 228.78 886.05 228.6 886.83 228.24C887.61 227.88 888.21 227.37 888.63 226.71C889.05 226.05 889.26 225.24 889.26 224.31C889.26 223.38 889.05 222.54 888.63 221.88C888.21 221.22 887.61 220.71 886.83 220.38C886.05 220.02 885.18 219.84 884.16 219.84H878.82V215.97V216ZM886.44 229.83L895.41 242.46H890.04L881.61 229.83H886.44Z" fill="#2D2D2D"/>
<path d="M938.28 216V243.81L918.96 224.7V242.49H914.579V214.68L933.93 233.79V216H938.309H938.28Z" fill="#2D2D2D"/>
<path d="M964.44 216V242.49H960.06V216H964.44ZM962.82 216H976.17V219.93H962.82V216ZM962.82 226.35H975.42V230.22H962.82V226.35ZM962.82 238.53H976.17V242.46H962.82V238.53Z" fill="#2D2D2D"/>
<path d="M1017.24 216L1008.24 231.33V242.49H1003.71V231.36L994.74 216H999.81L1005.99 227.34L1012.17 216H1017.27H1017.24Z" fill="#2D2D2D"/>
<path d="M1039.8 236.64C1040.46 237.42 1041.21 237.99 1042.02 238.41C1042.83 238.83 1043.73 239.04 1044.75 239.04C1045.95 239.04 1046.94 238.71 1047.69 238.05C1048.44 237.39 1048.83 236.55 1048.83 235.53C1048.83 234.51 1048.59 233.76 1048.11 233.16C1047.63 232.56 1046.97 232.05 1046.13 231.66C1045.29 231.24 1044.3 230.82 1043.19 230.43C1042.53 230.19 1041.81 229.89 1041 229.5C1040.19 229.11 1039.41 228.63 1038.69 228.03C1037.97 227.43 1037.34 226.71 1036.86 225.84C1036.38 224.97 1036.14 223.92 1036.14 222.69C1036.14 221.28 1036.5 220.05 1037.25 218.97C1038 217.89 1038.96 217.08 1040.22 216.48C1041.48 215.88 1042.89 215.58 1044.48 215.58C1046.07 215.58 1047.39 215.85 1048.56 216.42C1049.73 216.99 1050.69 217.68 1051.5 218.55C1052.28 219.42 1052.91 220.29 1053.36 221.25L1049.73 223.29C1049.4 222.63 1048.98 222.03 1048.47 221.46C1047.96 220.89 1047.39 220.44 1046.7 220.11C1046.01 219.78 1045.26 219.6 1044.36 219.6C1043.13 219.6 1042.23 219.87 1041.63 220.44C1041.03 221.01 1040.76 221.67 1040.76 222.42C1040.76 223.11 1040.97 223.71 1041.39 224.25C1041.81 224.79 1042.47 225.3 1043.34 225.78C1044.21 226.26 1045.38 226.74 1046.79 227.25C1047.57 227.52 1048.35 227.88 1049.16 228.3C1049.94 228.72 1050.69 229.26 1051.32 229.92C1051.98 230.55 1052.49 231.3 1052.88 232.17C1053.27 233.04 1053.48 234.03 1053.48 235.2C1053.48 236.43 1053.24 237.54 1052.76 238.53C1052.28 239.52 1051.62 240.33 1050.81 241.02C1050 241.71 1049.04 242.22 1047.99 242.58C1046.94 242.94 1045.86 243.12 1044.72 243.12C1043.16 243.12 1041.72 242.82 1040.4 242.19C1039.08 241.56 1037.91 240.75 1036.95 239.7C1035.99 238.65 1035.18 237.54 1034.61 236.34L1037.94 234.03C1038.51 235.05 1039.14 235.92 1039.8 236.7V236.64Z" fill="#2D2D2D"/>
</svg>
