<svg width="708" height="229" viewBox="0 0 708 229" fill="none" xmlns="http://www.w3.org/2000/svg">
<g clip-path="url(#clip0_13_125)">
<path d="M496.86 126.18C531.57 126.18 559.8 97.9498 559.8 63.2398C559.8 28.5298 531.57 0.299805 496.86 0.299805H342.75C358.11 7.5598 371.76 17.7898 382.98 30.2998H496.86C515.04 30.2998 529.8 45.0898 529.8 63.2398C529.8 81.3898 515.01 96.1798 496.86 96.1798H447.33C435.93 96.1798 425.97 103.05 421.95 113.73C417.93 124.41 420.84 136.14 429.36 143.67L512.64 217.26L524.67 187.86L454.89 126.21H496.86V126.18Z" fill="#FF6600"/>
<path d="M567.45 225.87L567.57 225.75L567.54 225.69L567.45 225.87Z" fill="#FF6600"/>
<path d="M614.43 0L521.46 227.46H553.86L575.64 174.21H653.37L675.15 227.46H707.55L614.55 0H614.4H614.43ZM628.14 144.18H587.88L614.49 79.08L641.1 144.18H628.14Z" fill="#FF6600"/>
<path d="M204.93 20.5201V0.570068H174.93V60.7801C182.19 45.4201 192.42 31.7401 204.93 20.5201Z" fill="#FF6600"/>
<path d="M289.05 0.27002C233.76 0.27002 187.5 39.81 177.12 92.13C189.75 103.2 199.98 116.97 206.91 132.51C205.62 126.69 204.93 120.63 204.93 114.42C204.93 68.04 242.67 30.27 289.08 30.27C335.49 30.27 373.23 68.01 373.23 114.42C373.23 160.83 335.49 198.57 289.08 198.57C255.84 198.57 227.04 179.19 213.39 151.14C215.7 160.26 216.93 169.83 216.93 179.67V202.8C236.61 218.88 261.72 228.57 289.08 228.57C352.02 228.57 403.23 177.36 403.23 114.42C403.23 51.48 351.99 0.27002 289.05 0.27002Z" fill="#FF6600"/>
<path d="M0 94.5901V227.91H30V132.63C17.52 122.25 7.26 109.29 0 94.5901Z" fill="#FF6600"/>
<path d="M104.4 147.6H153.96C144.09 131.22 126.96 119.67 107.01 117.6H104.4C63.39 117.6 30 84.2101 30 43.2001V0.570068H0V43.2001C0 100.77 46.83 147.6 104.4 147.6Z" fill="#FF6600"/>
<path d="M204.93 179.67C204.93 122.1 158.1 75.27 100.53 75.27H50.97C60.84 91.65 77.97 103.2 97.92 105.27H100.53C141.54 105.27 174.93 138.66 174.93 179.67V227.94H204.93V179.67Z" fill="#FF6600"/>
</g>
<defs>
<clipPath id="clip0_13_125">
<rect width="707.55" height="228.54" fill="white"/>
</clipPath>
</defs>
</svg>
