<svg width="204" height="185" viewBox="0 0 204 185" fill="none" xmlns="http://www.w3.org/2000/svg">
<g clip-path="url(#clip0_13_135)">
<path d="M7.0152 47.9725L13.9838 48.0194V0H0V82.1415L13.9838 98.6401V62.0807L6.96858 62.0338L7.0152 47.9725Z" fill="#FF6600"/>
<path d="M50.5515 62.2213L43.6062 62.1979V133.559L57.59 150.058V0H43.6062V48.1366L50.6214 48.16L50.5515 62.2213Z" fill="#FF6600"/>
<path d="M50.5513 62.2215L50.6212 48.1601L43.606 48.1367L13.9837 48.0195L7.01512 47.9727L6.96851 62.034L13.9837 62.0808L43.606 62.198L50.5513 62.2215Z" fill="#FF6600"/>
<path d="M123.29 175.79L132.426 165.01L107.978 138.738H88.8203L123.29 175.79Z" fill="#FF6600"/>
<path d="M190.04 48.0664H160.417V62.1277H190.04V48.0664Z" fill="#FF6600"/>
<path d="M130.795 0.117188H73.205V62.1276H130.795V0.117188ZM116.811 48.0663H87.1887V14.1785H116.811V48.0663Z" fill="#FF6600"/>
<path d="M146.433 148.487L160.417 131.989V62.1276V48.0663V14.1785H190.016V48.0663V62.1276V97.0699L204 80.5713V0.117188H146.433V148.487Z" fill="#FF6600"/>
<path d="M73.205 131.708H87.1887V138.738H130.795V76.728H73.205V131.708ZM87.1887 90.7659H116.811V124.654H87.1887V90.7659Z" fill="#FF6600"/>
<path d="M87.1887 131.708H73.205V138.738V168.501L87.1887 185V138.738V131.708Z" fill="#FF6600"/>
</g>
<defs>
<clipPath id="clip0_13_135">
<rect width="204" height="185" fill="white"/>
</clipPath>
</defs>
</svg>
